<svg width="512" height="512" viewBox="0 0 512 512" fill="none" xmlns="http://www.w3.org/2000/svg">
<path fill-rule="evenodd" clip-rule="evenodd" d="M0 15.0201C88.1552 13.8544 176.477 13.6878 264.968 14.5201C264.424 15.2373 263.757 15.7373 262.968 16.0201C175.813 15.0207 88.4912 14.6874 0.999878 15.0201C0.666618 15.0201 0.333259 15.0201 0 15.0201Z" fill="#00D3F3"/>
<path fill-rule="evenodd" clip-rule="evenodd" d="M451.945 33.0194C456.68 26.7771 462.012 20.9441 467.943 15.5201C430.947 14.8534 393.952 14.8534 356.956 15.5201C342.039 30.9409 326.708 45.7735 310.962 60.0183C325.758 44.7204 340.756 29.5543 355.956 14.5201C394.285 13.8535 432.614 13.8535 470.942 14.5201C464.741 20.8893 458.409 27.0557 451.945 33.0194Z" fill="#00D3F3"/>
<path fill-rule="evenodd" clip-rule="evenodd" d="M0.999878 15.0201C88.4912 14.6874 175.813 15.0207 262.968 16.02C234.397 45.092 205.735 73.9246 176.978 102.516C147.317 103.016 117.655 103.183 87.9892 103.016C87.9892 205.345 87.9892 307.675 87.9892 410.004C184.809 411.003 281.798 411.337 378.954 411.004C378.954 440.002 378.954 469.001 378.954 498C375.621 498 372.287 498 368.955 498C246.303 498 123.652 498 0.999878 498C0.999878 337.007 0.999878 176.013 0.999878 15.0201Z" fill="#00D3F3"/>
<path fill-rule="evenodd" clip-rule="evenodd" d="M451.945 33.0194C435.947 48.352 420.282 64.0181 404.95 80.0174C404.235 79.7344 403.402 79.4014 402.451 79.0174C402.092 82.0613 401.425 82.3953 400.451 80.0174C399.167 81.0894 398.834 82.4223 399.451 84.0172C383.674 99.7956 367.176 116.295 349.957 133.515C350.185 133.914 350.519 134.08 350.957 134.015C327.627 156.681 304.63 179.68 281.966 203.012C266.195 187.742 250.531 172.243 234.971 156.514C234.377 156.05 233.71 155.883 232.972 156.014C231.421 152.951 229.254 150.285 226.472 148.015C225.805 147.348 225.805 146.682 226.472 146.015C238.227 134.762 249.392 123.096 259.968 111.016C265.289 107.361 269.954 103.028 273.966 98.0167C286.326 85.3242 298.657 72.6577 310.962 60.0182C326.708 45.7735 342.039 30.9408 356.956 15.5201C393.952 14.8534 430.947 14.8534 467.943 15.5201C462.012 20.9441 456.68 26.7771 451.945 33.0194Z" fill="#00D3F3"/>
<path fill-rule="evenodd" clip-rule="evenodd" d="M404.95 80.0174C387.286 98.3497 369.288 116.349 350.957 134.015C350.519 134.08 350.185 133.914 349.957 133.515C367.176 116.295 383.674 99.7956 399.451 84.0172C398.834 82.4223 399.167 81.0894 400.451 80.0174C401.425 82.3953 402.092 82.0613 402.451 79.0175C403.402 79.4014 404.235 79.7344 404.95 80.0174Z" fill="#00D3F3"/>
<path fill-rule="evenodd" clip-rule="evenodd" d="M437.946 260.01C437.946 259.343 437.613 259.01 436.947 259.01C421.2 273.254 405.869 288.088 390.952 303.508C390.004 303.991 389.004 304.157 387.953 304.008C388.141 305.611 387.641 306.945 386.453 308.008C385.324 306.367 383.824 305.367 381.953 305.008C366.288 290.009 350.957 274.676 335.959 259.01C335.828 258.271 335.995 257.604 336.459 257.01C347.826 245.809 358.991 234.476 369.955 223.011C382.238 210.06 394.904 197.394 407.95 185.013C417.622 176.34 426.621 167.008 434.947 157.014C437.946 153.347 441.279 150.014 444.946 147.015C448.945 145.015 451.945 142.015 453.944 138.015C457.611 133.682 461.611 129.682 465.943 126.015C480.855 112.604 495.353 98.6046 509.438 84.0172C509.938 222.011 510.105 360.006 509.938 498C486.274 498 462.61 498 438.946 498C439.279 418.501 438.945 339.172 437.946 260.01Z" fill="#00D3F3"/>
<path fill-rule="evenodd" clip-rule="evenodd" d="M273.966 98.0167C269.954 103.028 265.289 107.361 259.968 111.016C264.007 105.976 268.673 101.644 273.966 98.0167Z" fill="#00D3F3"/>
<path fill-rule="evenodd" clip-rule="evenodd" d="M259.968 111.016C249.392 123.096 238.227 134.762 226.472 146.015C225.805 146.682 225.805 147.348 226.472 148.015C229.254 150.285 231.421 152.951 232.971 156.014C229.099 153.328 226.266 149.995 224.473 146.015C236.173 134.146 248.005 122.481 259.968 111.016Z" fill="#00D3F3"/>
<path fill-rule="evenodd" clip-rule="evenodd" d="M453.944 138.015C451.945 142.015 448.945 145.015 444.946 147.015C447.612 143.682 450.612 140.682 453.944 138.015Z" fill="#00D3F3"/>
<path fill-rule="evenodd" clip-rule="evenodd" d="M434.947 157.014C426.621 167.008 417.622 176.34 407.95 185.013C416.249 175.046 425.248 165.713 434.947 157.014Z" fill="#00D3F3"/>
<path fill-rule="evenodd" clip-rule="evenodd" d="M232.971 156.014C233.71 155.883 234.377 156.05 234.971 156.514C250.531 172.243 266.195 187.742 281.966 203.012C281.569 204.037 280.903 204.204 279.966 203.512C264.1 187.812 248.435 171.979 232.971 156.014Z" fill="#00D3F3"/>
<path fill-rule="evenodd" clip-rule="evenodd" d="M369.955 223.011C358.991 234.476 347.826 245.809 336.459 257.01C335.995 257.604 335.828 258.271 335.959 259.01C335.17 258.727 334.503 258.227 333.959 257.51C345.544 245.421 357.542 233.921 369.955 223.011Z" fill="#00D3F3"/>
<path fill-rule="evenodd" clip-rule="evenodd" d="M437.946 260.01C438.945 339.172 439.279 418.501 438.946 498C462.61 498 486.274 498 509.938 498C510.105 360.006 509.938 222.011 509.438 84.0172C495.353 98.6046 480.855 112.604 465.943 126.015C480.906 110.551 496.071 95.2178 511.437 80.0174C511.937 219.678 512.104 359.339 511.937 499C487.273 499 462.61 499 437.946 499C437.946 419.336 437.946 339.674 437.946 260.01Z" fill="#00D3F3"/>
<path fill-rule="evenodd" clip-rule="evenodd" d="M436.947 259.01C420.317 276.141 403.486 293.141 386.453 310.008C384.746 308.471 383.246 306.804 381.953 305.008C383.824 305.367 385.324 306.367 386.453 308.008C387.641 306.945 388.141 305.611 387.953 304.008C389.004 304.157 390.004 303.991 390.952 303.508C405.869 288.088 421.2 273.254 436.947 259.01Z" fill="#00D3F3"/>
<path fill-rule="evenodd" clip-rule="evenodd" d="M87.9892 410.004C185.31 410.004 282.632 410.004 379.954 410.004C379.954 439.669 379.954 469.334 379.954 499C376.287 499 372.621 499 368.955 499C368.955 498.667 368.955 498.333 368.955 498C372.287 498 375.621 498 378.954 498C378.954 469.001 378.954 440.002 378.954 411.004C281.798 411.337 184.809 411.003 87.9892 410.004Z" fill="#00D3F3"/>
<path fill-rule="evenodd" clip-rule="evenodd" d="M0 15.0201C0.333259 15.0201 0.666618 15.0201 0.999878 15.0201C0.999878 176.013 0.999878 337.007 0.999878 498C123.652 498 246.303 498 368.955 498C368.955 498.333 368.955 498.667 368.955 499C245.97 499 122.985 499 0 499C0 337.674 0 176.346 0 15.0201Z" fill="#00D3F3"/>
</svg>
